{
  "accessors": [
    {
      "bufferView": 2,
      "componentType": 5126,
      "count": 152,
      "max": [
        15.015706062316895,
        35.699005126953125,
        1.0
      ],
      "min": [
        -7.904913902282715,
        -4.835190773010254,
        -3.633230209350586
      ],
      "type": "VEC3"
    },
    {
      "bufferView": 2,
      "byteOffset": 1824,
      "componentType": 5126,
      "count": 152,
      "max": [
        1.0,
        1.0,
        1.0
      ],
      "min": [
        -1.0,
        -1.0,
        -1.0
      ],
      "type": "VEC3"
    },
    {
      "bufferView": 1,
      "componentType": 5126,
      "count": 152,
      "max": [
        0.9895459413528442,
        1.2192096710205078
      ],
      "min": [
        0.00881196465343237,
        -0.2404974102973938
      ],
      "type": "VEC2"
    },
    {
      "bufferView": 0,
      "componentType": 5125,
      "count": 228,
      "type": "SCALAR"
    },
    {
      "bufferView": 2,
      "byteOffset": 3648,
      "componentType": 5126,
      "count": 4,
      "max": [
        11.952231407165527,
        33.91896438598633,
        -0.9594675302505493
      ],
      "min": [
        -4.841439247131348,
        17.554325103759766,
        -0.9594677686691284
      ],
      "type": "VEC3"
    },
    {
      "bufferView": 2,
      "byteOffset": 3696,
      "componentType": 5126,
      "count": 4,
      "max": [
        1.4196930742116365e-08,
        0.0,
        1.0
      ],
      "min": [
        1.4196930742116365e-08,
        0.0,
        1.0
      ],
      "type": "VEC3"
    },
    {
      "bufferView": 1,
      "byteOffset": 1216,
      "componentType": 5126,
      "count": 4,
      "max": [
        0.9985277056694031,
        0.9950954914093018
      ],
      "min": [
        0.5370069742202759,
        0.5453654527664185
      ],
      "type": "VEC2"
    },
    {
      "bufferView": 0,
      "byteOffset": 912,
      "componentType": 5125,
      "count": 6,
      "type": "SCALAR"
    },
    {
      "bufferView": 2,
      "byteOffset": 3744,
      "componentType": 5126,
      "count": 311,
      "max": [
        45.19493103027344,
        35.699005126953125,
        1.0
      ],
      "min": [
        -7.904913902282715,
        -4.835190773010254,
        -3.633230209350586
      ],
      "type": "VEC3"
    },
    {
      "bufferView": 2,
      "byteOffset": 7476,
      "componentType": 5126,
      "count": 311,
      "max": [
        1.0,
        1.0,
        1.0
      ],
      "min": [
        -1.0,
        -1.0,
        -1.0
      ],
      "type": "VEC3"
    },
    {
      "bufferView": 1,
      "byteOffset": 1248,
      "componentType": 5126,
      "count": 311,
      "max": [
        1.0940334796905518,
        1.253269910812378
      ],
      "min": [
        0.007655819412320852,
        -0.7616300582885742
      ],
      "type": "VEC2"
    },
    {
      "bufferView": 0,
      "byteOffset": 936,
      "componentType": 5125,
      "count": 507,
      "type": "SCALAR"
    },
    {
      "bufferView": 2,
      "byteOffset": 11208,
      "componentType": 5126,
      "count": 4,
      "max": [
        38.14025115966797,
        33.88176345825195,
        -1.1041158437728882
      ],
      "min": [
        23.702573776245117,
        11.657296180725098,
        -1.1041158437728882
      ],
      "type": "VEC3"
    },
    {
      "bufferView": 2,
      "byteOffset": 11256,
      "componentType": 5126,
      "count": 4,
      "max": [
        0.0,
        0.0,
        1.0
      ],
      "min": [
        0.0,
        0.0,
        1.0
      ],
      "type": "VEC3"
    },
    {
      "bufferView": 1,
      "byteOffset": 3736,
      "componentType": 5126,
      "count": 4,
      "max": [
        0.9984192252159119,
        0.4064995050430298
      ],
      "min": [
        0.37595465779304504,
        0.002127761719748378
      ],
      "type": "VEC2"
    },
    {
      "bufferView": 0,
      "byteOffset": 2964,
      "componentType": 5125,
      "count": 6,
      "type": "SCALAR"
    },
    {
      "bufferView": 2,
      "byteOffset": 11304,
      "componentType": 5126,
      "count": 4,
      "max": [
        13.588607788085938,
        33.88176345825195,
        -1.1041157245635986
      ],
      "min": [
        -0.8513998985290527,
        11.657296180725098,
        -1.1041157245635986
      ],
      "type": "VEC3"
    },
    {
      "bufferView": 2,
      "byteOffset": 11352,
      "componentType": 5126,
      "count": 4,
      "max": [
        0.0,
        0.0,
        1.0
      ],
      "min": [
        0.0,
        0.0,
        1.0
      ],
      "type": "VEC3"
    },
    {
      "bufferView": 1,
      "byteOffset": 3768,
      "componentType": 5126,
      "count": 4,
      "max": [
        0.9984192252159119,
        0.40605294704437256
      ],
      "min": [
        0.37595489621162415,
        0.0016159964725375175
      ],
      "type": "VEC2"
    },
    {
      "bufferView": 0,
      "byteOffset": 2988,
      "componentType": 5125,
      "count": 6,
      "type": "SCALAR"
    },
    {
      "bufferView": 2,
      "byteOffset": 11400,
      "componentType": 5126,
      "count": 136,
      "max": [
        15.701011657714844,
        5.38623046875,
        0.3494873046875
      ],
      "min": [
        -15.46355152130127,
        -19.97718620300293,
        -0.349609375
      ],
      "type": "VEC3"
    },
    {
      "bufferView": 2,
      "byteOffset": 13032,
      "componentType": 5126,
      "count": 136,
      "max": [
        1.0,
        1.0,
        1.0
      ],
      "min": [
        -1.0,
        -1.0,
        -1.0
      ],
      "type": "VEC3"
    },
    {
      "bufferView": 1,
      "byteOffset": 3800,
      "componentType": 5126,
      "count": 136,
      "max": [
        0.5248077511787415,
        0.997776210308075
      ],
      "min": [
        0.032936036586761475,
        0.1619035005569458
      ],
      "type": "VEC2"
    },
    {
      "bufferView": 0,
      "byteOffset": 3012,
      "componentType": 5125,
      "count": 204,
      "type": "SCALAR"
    },
    {
      "bufferView": 2,
      "byteOffset": 14664,
      "componentType": 5126,
      "count": 4,
      "max": [
        7.218841552734375,
        4.923711776733398,
        0.2538573443889618
      ],
      "min": [
        -7.218841552734375,
        -17.300756454467773,
        0.2538573443889618
      ],
      "type": "VEC3"
    },
    {
      "bufferView": 2,
      "byteOffset": 14712,
      "componentType": 5126,
      "count": 4,
      "max": [
        0.0,
        0.0,
        1.0
      ],
      "min": [
        0.0,
        0.0,
        1.0
      ],
      "type": "VEC3"
    },
    {
      "bufferView": 1,
      "byteOffset": 4888,
      "componentType": 5126,
      "count": 4,
      "max": [
        0.9978411197662354,
        0.4074370861053467
      ],
      "min": [
        0.37596845626831055,
        0.0015906693879514933
      ],
      "type": "VEC2"
    },
    {
      "bufferView": 0,
      "byteOffset": 3828,
      "componentType": 5125,
      "count": 6,
      "type": "SCALAR"
    },
    {
      "bufferView": 2,
      "byteOffset": 14760,
      "componentType": 5126,
      "count": 2456,
      "max": [
        9.637176513671875,
        2.638723373413086,
        169.62384033203125
      ],
      "min": [
        -9.637176513671875,
        -20.17210578918457,
        -2.2822303771972656
      ],
      "type": "VEC3"
    },
    {
      "bufferView": 2,
      "byteOffset": 44232,
      "componentType": 5126,
      "count": 2456,
      "max": [
        1.0,
        1.0,
        1.0
      ],
      "min": [
        -1.0,
        -1.0,
        -1.0
      ],
      "type": "VEC3"
    },
    {
      "bufferView": 1,
      "byteOffset": 4920,
      "componentType": 5126,
      "count": 2456,
      "max": [
        0.9949713945388794,
        0.9994106292724609
      ],
      "min": [
        0.012304797768592834,
        0.00030411360785365105
      ],
      "type": "VEC2"
    },
    {
      "bufferView": 0,
      "byteOffset": 3852,
      "componentType": 5125,
      "count": 5532,
      "type": "SCALAR"
    },
    {
      "bufferView": 2,
      "byteOffset": 73704,
      "componentType": 5126,
      "count": 181,
      "max": [
        55.890350341796875,
        39.75459289550781,
        14.872587203979492
      ],
      "min": [
        22.206554412841797,
        -4.835190773010254,
        -11.59355354309082
      ],
      "type": "VEC3"
    },
    {
      "bufferView": 2,
      "byteOffset": 75876,
      "componentType": 5126,
      "count": 181,
      "max": [
        1.0,
        1.0,
        1.0
      ],
      "min": [
        -1.0,
        -1.0,
        -1.0
      ],
      "type": "VEC3"
    },
    {
      "bufferView": 1,
      "byteOffset": 24568,
      "componentType": 5126,
      "count": 181,
      "max": [
        0.9953588843345642,
        0.9979965090751648
      ],
      "min": [
        0.01790158823132515,
        0.00034346478059887886
      ],
      "type": "VEC2"
    },
    {
      "bufferView": 0,
      "byteOffset": 25980,
      "componentType": 5125,
      "count": 279,
      "type": "SCALAR"
    },
    {
      "bufferView": 2,
      "byteOffset": 78048,
      "componentType": 5126,
      "count": 159,
      "max": [
        55.726375579833984,
        39.75459289550781,
        14.872587203979492
      ],
      "min": [
        52.73124313354492,
        -4.835190773010254,
        -11.59355354309082
      ],
      "type": "VEC3"
    },
    {
      "bufferView": 2,
      "byteOffset": 79956,
      "componentType": 5126,
      "count": 159,
      "max": [
        1.0,
        1.0,
        1.0
      ],
      "min": [
        -1.0,
        -1.0,
        -1.0
      ],
      "type": "VEC3"
    },
    {
      "bufferView": 1,
      "byteOffset": 26016,
      "componentType": 5126,
      "count": 159,
      "max": [
        0.9913109540939331,
        0.997869610786438
      ],
      "min": [
        0.005334794521331787,
        0.0005661798641085625
      ],
      "type": "VEC2"
    },
    {
      "bufferView": 0,
      "byteOffset": 27096,
      "componentType": 5125,
      "count": 255,
      "type": "SCALAR"
    }
  ],
  "asset": {
    "extras": {
      "author": "FrodoUndead (https://sketchfab.com/FrodoUndead)",
      "license": "CC-BY-4.0 (http://creativecommons.org/licenses/by/4.0/)",
      "source": "https://sketchfab.com/3d-models/gun-targets-eb9fbe283faa41ef8685359a0769d303",
      "title": "Gun Targets"
    },
    "generator": "Sketchfab-13.74.0",
    "version": "2.0"
  },
  "bufferViews": [
    {
      "buffer": 0,
      "byteLength": 28116,
      "name": "floatBufferViews",
      "target": 34963
    },
    {
      "buffer": 0,
      "byteLength": 27288,
      "byteOffset": 28116,
      "byteStride": 8,
      "name": "floatBufferViews",
      "target": 34962
    },
    {
      "buffer": 0,
      "byteLength": 81864,
      "byteOffset": 55404,
      "byteStride": 12,
      "name": "floatBufferViews",
      "target": 34962
    }
  ],
  "buffers": [
    {
      "byteLength": 137268,
      "uri": "scene.bin"
    }
  ],
  "images": [
    {
      "uri": "textures/Targets_baseColor.png"
    },
    {
      "uri": "textures/Targets_metallicRoughness.png"
    }
  ],
  "materials": [
    {
      "name": "Targets",
      "occlusionTexture": {
        "index": 1
      },
      "pbrMetallicRoughness": {
        "baseColorTexture": {
          "index": 0
        },
        "metallicFactor": 0.0,
        "metallicRoughnessTexture": {
          "index": 1
        },
        "roughnessFactor": 0.5
      }
    }
  ],
  "meshes": [
    {
      "name": "Object_0",
      "primitives": [
        {
          "attributes": {
            "NORMAL": 1,
            "POSITION": 0,
            "TEXCOORD_0": 2
          },
          "indices": 3,
          "material": 0,
          "mode": 4
        }
      ]
    },
    {
      "name": "Object_1",
      "primitives": [
        {
          "attributes": {
            "NORMAL": 5,
            "POSITION": 4,
            "TEXCOORD_0": 6
          },
          "indices": 7,
          "material": 0,
          "mode": 4
        }
      ]
    },
    {
      "name": "Object_2",
      "primitives": [
        {
          "attributes": {
            "NORMAL": 9,
            "POSITION": 8,
            "TEXCOORD_0": 10
          },
          "indices": 11,
          "material": 0,
          "mode": 4
        }
      ]
    },
    {
      "name": "Object_3",
      "primitives": [
        {
          "attributes": {
            "NORMAL": 13,
            "POSITION": 12,
            "TEXCOORD_0": 14
          },
          "indices": 15,
          "material": 0,
          "mode": 4
        }
      ]
    },
    {
      "name": "Object_4",
      "primitives": [
        {
          "attributes": {
            "NORMAL": 17,
            "POSITION": 16,
            "TEXCOORD_0": 18
          },
          "indices": 19,
          "material": 0,
          "mode": 4
        }
      ]
    },
    {
      "name": "Object_5",
      "primitives": [
        {
          "attributes": {
            "NORMAL": 21,
            "POSITION": 20,
            "TEXCOORD_0": 22
          },
          "indices": 23,
          "material": 0,
          "mode": 4
        }
      ]
    },
    {
      "name": "Object_6",
      "primitives": [
        {
          "attributes": {
            "NORMAL": 25,
            "POSITION": 24,
            "TEXCOORD_0": 26
          },
          "indices": 27,
          "material": 0,
          "mode": 4
        }
      ]
    },
    {
      "name": "Object_7",
      "primitives": [
        {
          "attributes": {
            "NORMAL": 29,
            "POSITION": 28,
            "TEXCOORD_0": 30
          },
          "indices": 31,
          "material": 0,
          "mode": 4
        }
      ]
    },
    {
      "name": "Object_8",
      "primitives": [
        {
          "attributes": {
            "NORMAL": 33,
            "POSITION": 32,
            "TEXCOORD_0": 34
          },
          "indices": 35,
          "material": 0,
          "mode": 4
        }
      ]
    },
    {
      "name": "Object_9",
      "primitives": [
        {
          "attributes": {
            "NORMAL": 37,
            "POSITION": 36,
            "TEXCOORD_0": 38
          },
          "indices": 39,
          "material": 0,
          "mode": 4
        }
      ]
    }
  ],
  "nodes": [
    {
      "children": [
        1
      ],
      "matrix": [
        1.0,
        0.0,
        0.0,
        0.0,
        0.0,
        2.220446049250313e-16,
        -1.0,
        0.0,
        0.0,
        1.0,
        2.220446049250313e-16,
        0.0,
        0.0,
        0.0,
        0.0,
        1.0
      ],
      "name": "Sketchfab_model"
    },
    {
      "children": [
        2
      ],
      "name": "root"
    },
    {
      "children": [
        3,
        7,
        13,
        17,
        19,
        21
      ],
      "matrix": [
        1.0,
        0.0,
        0.0,
        0.0,
        0.0,
        2.220446049250313e-16,
        1.0,
        0.0,
        0.0,
        -1.0,
        2.220446049250313e-16,
        0.0,
        0.0,
        0.0,
        0.0,
        1.0
      ],
      "name": "GLTF_SceneRootNode"
    },
    {
      "children": [
        4,
        5
      ],
      "matrix": [
        1.0,
        0.0,
        0.0,
        0.0,
        0.0,
        1.0,
        0.0,
        0.0,
        0.0,
        0.0,
        1.0,
        0.0,
        -105.54277038574219,
        0.0,
        0.0,
        1.0
      ],
      "name": "Single Target_1"
    },
    {
      "mesh": 0,
      "name": "Object_4"
    },
    {
      "children": [
        6
      ],
      "name": "Target(Square)_0"
    },
    {
      "mesh": 1,
      "name": "Object_6"
    },
    {
      "children": [
        8,
        9,
        11
      ],
      "matrix": [
        1.0,
        0.0,
        0.0,
        0.0,
        0.0,
        1.0,
        0.0,
        0.0,
        0.0,
        0.0,
        1.0,
        0.0,
        -75.5087661743164,
        0.0,
        0.0,
        1.0
      ],
      "name": "Double Target_4"
    },
    {
      "mesh": 2,
      "name": "Object_8"
    },
    {
      "children": [
        10
      ],
      "name": "Target(Full).001_2"
    },
    {
      "mesh": 3,
      "name": "Object_10"
    },
    {
      "children": [
        12
      ],
      "name": "Target(Full).002_3"
    },
    {
      "mesh": 4,
      "name": "Object_12"
    },
    {
      "children": [
        14,
        15
      ],
      "matrix": [
        1.0,
        0.0,
        0.0,
        0.0,
        0.0,
        1.0,
        0.0,
        0.0,
        0.0,
        0.0,
        1.0,
        0.0,
        0.003021240234375,
        28.300214767456055,
        -305.0611572265625,
        1.0
      ],
      "name": "Moving Target_6"
    },
    {
      "mesh": 5,
      "name": "Object_14"
    },
    {
      "children": [
        16
      ],
      "name": "Target(Full)_5"
    },
    {
      "mesh": 6,
      "name": "Object_16"
    },
    {
      "children": [
        18
      ],
      "matrix": [
        -1.8323851823806763,
        0.0,
        0.0,
        -0.0,
        0.0,
        -1.8323851823805786,
        5.970668979855157e-07,
        0.0,
        -0.0,
        -5.970668979855157e-07,
        -1.8323851823805786,
        0.0,
        0.0,
        -3.814697265625e-06,
        -7.62939453125e-06,
        1.0
      ],
      "name": "Moving Target Rails_7"
    },
    {
      "mesh": 7,
      "name": "Object_18"
    },
    {
      "children": [
        20
      ],
      "matrix": [
        1.0,
        0.0,
        0.0,
        0.0,
        0.0,
        1.0,
        0.0,
        0.0,
        0.0,
        0.0,
        1.0,
        0.0,
        -38.03246307373047,
        0.0,
        0.0,
        1.0
      ],
      "name": "BoothTable_8"
    },
    {
      "mesh": 8,
      "name": "Object_20"
    },
    {
      "children": [
        22
      ],
      "matrix": [
        1.0,
        0.0,
        0.0,
        0.0,
        0.0,
        1.0,
        0.0,
        0.0,
        0.0,
        0.0,
        1.0,
        0.0,
        -75.5087661743164,
        0.0,
        0.0,
        1.0
      ],
      "name": "BoothWall_9"
    },
    {
      "mesh": 9,
      "name": "Object_22"
    }
  ],
  "samplers": [
    {
      "magFilter": 9729,
      "minFilter": 9987,
      "wrapS": 10497,
      "wrapT": 10497
    }
  ],
  "scene": 0,
  "scenes": [
    {
      "name": "Sketchfab_Scene",
      "nodes": [
        0
      ]
    }
  ],
  "textures": [
    {
      "sampler": 0,
      "source": 0
    },
    {
      "sampler": 0,
      "source": 1
    }
  ]
}
